# xmcd
#
# Track frame offsets: 
#        150
#        18570
#        32883
#        48470
#        63604
#        81351
#        103458
#        118100
#        127204
#        145034
#        161607
#        183688
#
# Disc length: 2734 seconds
#
# Revision: 0
# Processed by: cddbd v1.5.2PL0 Copyright (c) Steve Scherf et al.
# Submitted via: ExactAudioCopyFreeDBPlugin 1.0
#
DISCID=b90aac0c
DTITLE=Gaither Gospel - Bill Gaither's Best of Homecoming 2013 (2013)
DYEAR=2013
DGENRE=Southern Gospel
TTITLE0=Booth Brothers - Still Feelin' Fine
TTITLE1=Guy Penrod - Leaning On the Everlasting Arms
TTITLE2=Gaither Vocal Band - Do You Wanna Be Well
TTITLE3=Oak Ridge Boys - Lead Me To That Rock
TTITLE4=Lynda Randle - Just a Closer Walk With Thee
TTITLE5=Crabb Family - Back To the Front Porch
TTITLE6=Ivan Parker - God Bless the USA
TTITLE7=Anthony Burger - Goodby World Goodby
TTITLE8=David Phelps - You'll Never Walk Alone
TTITLE9=Booth Brothers - Because He Lives
TTITLE10=Guy Penrod - The Old Rugged Cross
TTITLE11=Bill Gaither - Back Home Again
EXTD=
EXTT0=
EXTT1=
EXTT2=
EXTT3=
EXTT4=
EXTT5=
EXTT6=
EXTT7=
EXTT8=
EXTT9=
EXTT10=
EXTT11=
PLAYORDER=
